<svg width="180" height="60" viewBox="0 0 180 60" fill="none" xmlns="http://www.w3.org/2000/svg">
<rect width="180" height="60" rx="8" fill="url(#paint0_linear_1_6)"/>
<path d="M34.5 17.7273V20H23.8636V17.7273H34.5ZM44.6023 44.5L37.1023 16.6364H39.5568L47.0568 44.5H44.6023ZM62.2812 41V43.5H47.7358V41H62.2812ZM65.6591 31.1818C65.6591 28.3182 66.0303 25.6856 66.7727 23.2841C67.5227 20.875 68.5909 18.6591 69.9773 16.6364H72.3409C71.7955 17.3864 71.2841 18.3106 70.8068 19.4091C70.3371 20.5 69.9242 21.7008 69.5682 23.0114C69.2121 24.3144 68.9318 25.6629 68.7273 27.0568C68.5303 28.4508 68.4318 29.8258 68.4318 31.1818C68.4318 32.9848 68.6061 34.8144 68.9545 36.6705C69.303 38.5265 69.7727 40.25 70.3636 41.8409C70.9545 43.4318 71.6136 44.7273 72.3409 45.7273H69.9773C68.5909 43.7045 67.5227 41.4924 66.7727 39.0909C66.0303 36.6818 65.6591 34.0455 65.6591 31.1818ZM88.4038 16.968L85.9718 17.768C86.7718 19.464 88.5638 24.392 89.1078 26.216L91.6038 25.352C91.0598 23.56 89.1078 18.472 88.4038 16.968ZM102.644 19.016L99.6678 18.152C99.0598 22.984 97.0758 28.104 94.5478 31.336C91.3158 35.432 86.5478 38.504 82.0038 39.848L84.1798 42.056C88.7238 40.456 93.4278 37.16 96.7238 32.808C99.3798 29.352 101.076 24.808 102.068 20.808C102.196 20.328 102.42 19.528 102.644 19.016ZM79.4758 18.888L76.9798 19.784C77.7158 21.192 79.9238 26.6 80.5318 28.584L83.0918 27.656C82.3238 25.544 80.3398 20.68 79.4758 18.888ZM114.026 31.1818C114.026 34.0455 113.651 36.6818 112.901 39.0909C112.158 41.4924 111.094 43.7045 109.707 45.7273H107.344C107.889 44.9773 108.397 44.053 108.866 42.9545C109.344 41.8636 109.76 40.6667 110.116 39.3636C110.473 38.053 110.749 36.7008 110.946 35.3068C111.151 33.9053 111.253 32.5303 111.253 31.1818C111.253 29.3788 111.079 27.5492 110.73 25.6932C110.382 23.8371 109.912 22.1136 109.321 20.5227C108.73 18.9318 108.071 17.6364 107.344 16.6364H109.707C111.094 18.6591 112.158 20.875 112.901 23.2841C113.651 25.6856 114.026 28.3182 114.026 31.1818ZM131.938 41V43.5H117.392V41H131.938ZM142.588 16.6364L135.088 44.5H132.634L140.134 16.6364H142.588ZM155.812 17.7273V20H145.176V17.7273H155.812Z" fill="white"/>
<defs>
<linearGradient id="paint0_linear_1_6" x1="4" y1="60" x2="180" y2="60" gradientUnits="userSpaceOnUse">
<stop stop-color="#272B9B"/>
<stop offset="1" stop-color="#AE2929"/>
</linearGradient>
</defs>
</svg>
