<?xml version="1.0" standalone="no"?>
<!DOCTYPE svg PUBLIC "-//W3C//DTD SVG 20010904//EN"
 "http://www.w3.org/TR/2001/REC-SVG-20010904/DTD/svg10.dtd">
<svg version="1.0" xmlns="http://www.w3.org/2000/svg"
 width="128.000000pt" height="128.000000pt" viewBox="0 0 128.000000 128.000000"
 preserveAspectRatio="xMidYMid meet">
<metadata>
Created by potrace 1.14, written by Peter Selinger 2001-2017
</metadata>
<g transform="translate(0.000000,128.000000) scale(0.100000,-0.100000)"
fill="#000000" stroke="none">
<path d="M495 1263 c-217 -52 -392 -214 -467 -435 -17 -50 -21 -87 -22 -183 0
-136 9 -175 66 -295 71 -147 221 -273 388 -325 76 -24 238 -28 320 -9 221 51
409 227 475 444 27 89 29 241 4 336 -57 218 -225 394 -439 459 -74 22 -247 27
-325 8z m286 -83 c348 -90 520 -483 352 -803 -72 -137 -228 -255 -376 -285
-330 -67 -647 170 -674 503 -22 271 163 525 429 591 71 17 190 15 269 -6z"/>
<path d="M407 1053 c-4 -3 -8 -29 -8 -57 l-1 -51 -10 52 c-6 36 -13 50 -22 47
-13 -5 -13 -55 -1 -92 3 -7 1 -11 -4 -8 -5 3 -11 19 -14 36 -10 48 -29 37 -23
-12 3 -24 8 -67 11 -97 3 -30 7 -57 10 -60 3 -2 -4 -14 -15 -26 -28 -30 -49
-148 -47 -269 2 -114 15 -148 91 -243 l41 -52 283 -1 c226 0 282 3 282 13 0
16 -48 61 -74 71 -24 8 -18 14 24 21 78 13 73 4 67 139 -7 138 -11 166 -37
240 -33 97 -98 178 -168 212 -45 21 -135 24 -202 7 -28 -7 -55 -11 -60 -8 -4
2 -15 -4 -25 -15 -27 -30 -45 -25 -45 13 0 17 4 46 9 63 5 17 5 37 0 45 -10
17 -14 12 -27 -36 l-10 -40 -1 58 c-1 53 -8 67 -24 50z"/>
</g>
</svg>
